# xmcd CD database file
#
# Track frame offsets:
#	183
#	26035
#	50588
#	71678
#	99638
#	107343
#	134948
#	159848
#	183915
#
# Disc length: 2667 seconds
#
# Revision: 0
# Processed by: cddbd v1.5.1PL0 Copyright (c) Steve Scherf et al.
# Submitted via: CDex 1.51
#
DISCID=790a6909
DTITLE=Charly d'Inverno trio - Following the Band
DYEAR=1992
DGENRE=Jazz
TTITLE0=Following the Band
TTITLE1=Slow Hands
TTITLE2=Facing You
TTITLE3=Straight Out
TTITLE4=Chantal
TTITLE5=Ballad
TTITLE6=September
TTITLE7=Monica
TTITLE8=Short Story
EXTD=YEAR: 1992
EXTT0=
EXTT1=
EXTT2=
EXTT3=
EXTT4=
EXTT5=
EXTT6=
EXTT7=
EXTT8=
PLAYORDER=
